# Blender 4.3.2
# www.blender.org
mtllib MihiroTakizawa.blender.mtl
o Cube.001
v -0.206396 0.299943 0.210191
v -0.206545 0.305525 -0.202694
v -0.206545 -0.305525 0.202694
v -0.206545 -0.300297 -0.210363
v 0.206545 0.300297 0.210363
v 0.206545 0.305525 -0.202694
v 0.206545 -0.305525 0.202694
v 0.206545 -0.300297 -0.210363
vn -1.0000 0.0001 0.0002
vn -0.0000 -0.9999 -0.0127
vn 1.0000 -0.0000 -0.0000
vn -0.0002 -0.0125 0.9999
vn -0.0000 0.0127 -0.9999
vt 0.015274 0.012058
vt 1.013198 0.012058
vt 1.013198 0.998786
vt 0.015274 0.998786
vt 0.444614 0.319614
vt 0.555386 0.319614
vt 0.555386 0.430386
vt 0.444614 0.430386
vt -0.010186 -0.010686
vt 1.010186 -0.010686
vt 1.010186 1.009686
vt -0.010186 1.009686
vt -0.002017 0.008740
vt 0.997437 0.008740
vt 0.997437 1.009870
vt -0.002017 1.009870
vt 0.007234 0.010647
vt 0.989434 0.010647
vt 0.989434 0.992848
vt 0.007234 0.992848
s 0
usemtl マテリアル
f 1/1/1 2/2/1 4/3/1 3/4/1
f 3/5/2 4/6/2 8/7/2 7/8/2
f 7/9/3 8/10/3 6/11/3 5/12/3
f 3/13/4 7/14/4 5/15/4 1/16/4
f 8/17/5 4/18/5 2/19/5 6/20/5
